<mxfile host="65bd71144e">
    <diagram id="R2lEEEUBdFMjLlhIrx00" name="Page-1">
        <mxGraphModel dx="1721" dy="682" grid="1" gridSize="10" guides="1" tooltips="1" connect="1" arrows="1" fold="1" page="1" pageScale="1" pageWidth="850" pageHeight="1100" math="0" shadow="0" extFonts="Permanent Marker^https://fonts.googleapis.com/css?family=Permanent+Marker">
            <root>
                <mxCell id="0"/>
                <mxCell id="1" parent="0"/>
                <mxCell id="WxUuIMXV8Rg6rb-CyEsn-12" style="edgeStyle=orthogonalEdgeStyle;rounded=0;orthogonalLoop=1;jettySize=auto;html=1;exitX=0.75;exitY=0;exitDx=0;exitDy=0;entryX=0.5;entryY=0;entryDx=0;entryDy=0;" parent="1" source="WxUuIMXV8Rg6rb-CyEsn-2" target="WxUuIMXV8Rg6rb-CyEsn-11" edge="1">
                    <mxGeometry relative="1" as="geometry"/>
                </mxCell>
                <mxCell id="WxUuIMXV8Rg6rb-CyEsn-2" value="User" style="rounded=0;whiteSpace=wrap;html=1;" parent="1" vertex="1">
                    <mxGeometry x="110" y="230" width="120" height="60" as="geometry"/>
                </mxCell>
                <mxCell id="WxUuIMXV8Rg6rb-CyEsn-4" value="" style="endArrow=none;html=1;rounded=0;exitX=1;exitY=0.5;exitDx=0;exitDy=0;" parent="1" source="WxUuIMXV8Rg6rb-CyEsn-2" target="WxUuIMXV8Rg6rb-CyEsn-5" edge="1">
                    <mxGeometry width="50" height="50" relative="1" as="geometry">
                        <mxPoint x="400" y="300" as="sourcePoint"/>
                        <mxPoint x="300" y="260" as="targetPoint"/>
                    </mxGeometry>
                </mxCell>
                <mxCell id="WxUuIMXV8Rg6rb-CyEsn-5" value="Beschreibung" style="ellipse;whiteSpace=wrap;html=1;" parent="1" vertex="1">
                    <mxGeometry x="270" y="230" width="90" height="60" as="geometry"/>
                </mxCell>
                <mxCell id="WxUuIMXV8Rg6rb-CyEsn-6" value="Name" style="ellipse;whiteSpace=wrap;html=1;" parent="1" vertex="1">
                    <mxGeometry x="160" y="320" width="60" height="50" as="geometry"/>
                </mxCell>
                <mxCell id="WxUuIMXV8Rg6rb-CyEsn-7" value="&lt;u&gt;UserID&lt;/u&gt;" style="ellipse;whiteSpace=wrap;html=1;" parent="1" vertex="1">
                    <mxGeometry x="210" y="110" width="70" height="60" as="geometry"/>
                </mxCell>
                <mxCell id="WxUuIMXV8Rg6rb-CyEsn-8" value="Wohnort" style="ellipse;whiteSpace=wrap;html=1;" parent="1" vertex="1">
                    <mxGeometry x="90" y="100" width="120" height="80" as="geometry"/>
                </mxCell>
                <mxCell id="WxUuIMXV8Rg6rb-CyEsn-9" value="Alter" style="ellipse;whiteSpace=wrap;html=1;" parent="1" vertex="1">
                    <mxGeometry x="60" y="380" width="70" height="50" as="geometry"/>
                </mxCell>
                <mxCell id="WxUuIMXV8Rg6rb-CyEsn-10" value="Hobbies" style="ellipse;whiteSpace=wrap;html=1;" parent="1" vertex="1">
                    <mxGeometry x="-50" y="290" width="120" height="80" as="geometry"/>
                </mxCell>
                <mxCell id="WxUuIMXV8Rg6rb-CyEsn-13" style="edgeStyle=orthogonalEdgeStyle;rounded=0;orthogonalLoop=1;jettySize=auto;html=1;exitX=0.5;exitY=1;exitDx=0;exitDy=0;entryX=0.75;entryY=1;entryDx=0;entryDy=0;" parent="1" source="WxUuIMXV8Rg6rb-CyEsn-11" target="WxUuIMXV8Rg6rb-CyEsn-2" edge="1">
                    <mxGeometry relative="1" as="geometry"/>
                </mxCell>
                <mxCell id="WxUuIMXV8Rg6rb-CyEsn-11" value="kennt" style="rhombus;whiteSpace=wrap;html=1;" parent="1" vertex="1">
                    <mxGeometry x="440" y="200" width="80" height="80" as="geometry"/>
                </mxCell>
                <mxCell id="WxUuIMXV8Rg6rb-CyEsn-14" value="n" style="text;html=1;align=center;verticalAlign=middle;resizable=0;points=[];autosize=1;strokeColor=none;fillColor=none;" parent="1" vertex="1">
                    <mxGeometry x="200" y="200" width="20" height="20" as="geometry"/>
                </mxCell>
                <mxCell id="WxUuIMXV8Rg6rb-CyEsn-15" value="n" style="text;html=1;align=center;verticalAlign=middle;resizable=0;points=[];autosize=1;strokeColor=none;fillColor=none;" parent="1" vertex="1">
                    <mxGeometry x="200" y="290" width="20" height="20" as="geometry"/>
                </mxCell>
                <mxCell id="WxUuIMXV8Rg6rb-CyEsn-30" style="edgeStyle=orthogonalEdgeStyle;rounded=0;orthogonalLoop=1;jettySize=auto;html=1;exitX=0.5;exitY=0;exitDx=0;exitDy=0;entryX=0.25;entryY=1;entryDx=0;entryDy=0;" parent="1" source="WxUuIMXV8Rg6rb-CyEsn-21" target="WxUuIMXV8Rg6rb-CyEsn-2" edge="1">
                    <mxGeometry relative="1" as="geometry"/>
                </mxCell>
                <mxCell id="WxUuIMXV8Rg6rb-CyEsn-21" value="&lt;u&gt;AktivitÃ¤t&lt;/u&gt;" style="ellipse;whiteSpace=wrap;html=1;" parent="1" vertex="1">
                    <mxGeometry x="120" y="430" width="120" height="80" as="geometry"/>
                </mxCell>
                <mxCell id="WxUuIMXV8Rg6rb-CyEsn-25" value="&lt;u&gt;istKompatibel&lt;/u&gt;" style="ellipse;whiteSpace=wrap;html=1;" parent="1" vertex="1">
                    <mxGeometry x="570" y="210" width="120" height="80" as="geometry"/>
                </mxCell>
                <mxCell id="WxUuIMXV8Rg6rb-CyEsn-26" value="Geschlecht" style="ellipse;whiteSpace=wrap;html=1;" parent="1" vertex="1">
                    <mxGeometry x="-30" y="100" width="120" height="80" as="geometry"/>
                </mxCell>
                <mxCell id="WxUuIMXV8Rg6rb-CyEsn-27" value="Sucht" style="ellipse;whiteSpace=wrap;html=1;" parent="1" vertex="1">
                    <mxGeometry x="-40" y="200" width="120" height="80" as="geometry"/>
                </mxCell>
                <mxCell id="WxUuIMXV8Rg6rb-CyEsn-32" value="Archiv" style="rounded=0;whiteSpace=wrap;html=1;" parent="1" vertex="1">
                    <mxGeometry x="460" y="460" width="120" height="60" as="geometry"/>
                </mxCell>
                <mxCell id="WxUuIMXV8Rg6rb-CyEsn-35" style="edgeStyle=orthogonalEdgeStyle;rounded=0;orthogonalLoop=1;jettySize=auto;html=1;exitX=1;exitY=1;exitDx=0;exitDy=0;entryX=0.5;entryY=0;entryDx=0;entryDy=0;" parent="1" source="WxUuIMXV8Rg6rb-CyEsn-34" target="WxUuIMXV8Rg6rb-CyEsn-32" edge="1">
                    <mxGeometry relative="1" as="geometry"/>
                </mxCell>
                <mxCell id="WxUuIMXV8Rg6rb-CyEsn-36" style="edgeStyle=orthogonalEdgeStyle;rounded=0;orthogonalLoop=1;jettySize=auto;html=1;exitX=0;exitY=0;exitDx=0;exitDy=0;entryX=0;entryY=0.9;entryDx=0;entryDy=0;entryPerimeter=0;" parent="1" source="WxUuIMXV8Rg6rb-CyEsn-34" target="WxUuIMXV8Rg6rb-CyEsn-2" edge="1">
                    <mxGeometry relative="1" as="geometry"/>
                </mxCell>
                <mxCell id="WxUuIMXV8Rg6rb-CyEsn-34" value="wirdGespeichert" style="rhombus;whiteSpace=wrap;html=1;" parent="1" vertex="1">
                    <mxGeometry x="290" y="365" width="80" height="80" as="geometry"/>
                </mxCell>
                <mxCell id="WxUuIMXV8Rg6rb-CyEsn-37" value="1" style="text;html=1;align=center;verticalAlign=middle;resizable=0;points=[];autosize=1;strokeColor=none;fillColor=none;" parent="1" vertex="1">
                    <mxGeometry x="530" y="440" width="20" height="20" as="geometry"/>
                </mxCell>
                <mxCell id="WxUuIMXV8Rg6rb-CyEsn-38" value="n" style="text;html=1;align=center;verticalAlign=middle;resizable=0;points=[];autosize=1;strokeColor=none;fillColor=none;" parent="1" vertex="1">
                    <mxGeometry x="90" y="290" width="20" height="20" as="geometry"/>
                </mxCell>
                <mxCell id="WxUuIMXV8Rg6rb-CyEsn-39" value="Marktwert" style="ellipse;whiteSpace=wrap;html=1;" parent="1" vertex="1">
                    <mxGeometry x="360" y="570" width="120" height="80" as="geometry"/>
                </mxCell>
            </root>
        </mxGraphModel>
    </diagram>
</mxfile>